<svg version="1.1" id="Layer_1" xmlns="http://www.w3.org/2000/svg" xmlns:xlink="http://www.w3.org/1999/xlink" x="0px" y="0px"
	 width="100%" viewBox="0 0 1588 2102" enable-background="new 0 0 1588 2102" xml:space="preserve">

<path fill="#FFFFFF" opacity="1.000000" stroke="none" 
	d="
M1365.894287,1831.885742 
	C1307.741699,1908.443481 1234.903564,1965.751953 1146.762207,2003.303467 
	C1104.058228,2021.497192 1059.654053,2033.759277 1013.576965,2040.172363 
	C977.434082,2045.202637 941.225586,2045.893555 904.875183,2044.444092 
	C901.849915,2044.323608 898.789856,2045.377930 895.745911,2045.378418 
	C645.247375,2045.425293 394.748840,2045.421631 144.250320,2045.421631 
	C142.282593,2045.421631 140.314865,2045.421631 137.845078,2045.421631 
	C137.845078,2037.660767 137.803024,2030.207153 137.903656,2022.755493 
	C137.914948,2021.918701 138.517303,2020.743896 139.210526,2020.313599 
	C151.289856,2012.813354 159.128433,2001.172852 167.648224,1990.411133 
	C278.951599,1849.815186 372.366608,1698.037109 450.164307,1536.587280 
	C488.615662,1456.791016 522.321167,1375.037598 550.452698,1290.990112 
	C554.368286,1279.291870 560.844421,1268.390747 566.658875,1257.397339 
	C607.156982,1180.827515 649.696899,1105.453735 697.700928,1033.258667 
	C731.328674,982.684631 767.724487,934.218994 809.893005,890.496460 
	C828.325378,871.384766 848.852966,854.105591 869.604370,837.459473 
	C908.276978,806.437439 943.168213,771.750732 973.935608,733.015137 
	C1053.374023,633.003479 1109.834595,521.404297 1141.319092,397.445679 
	C1152.138916,354.846924 1158.518677,311.608093 1157.823975,267.526947 
	C1157.513306,247.803253 1155.108643,228.334869 1148.960449,209.498489 
	C1147.744263,205.772720 1145.830444,202.222733 1143.831543,198.831375 
	C1143.086792,197.567642 1141.178467,196.989716 1139.800659,196.099030 
	C1139.202271,197.792984 1137.973145,199.538986 1138.107910,201.172485 
	C1138.982300,211.772003 1140.605591,222.324280 1141.139282,232.934494 
	C1142.515625,260.295715 1137.860840,287.003784 1131.432373,313.456238 
	C1115.725342,378.088531 1089.999146,438.816803 1059.455811,497.648529 
	C1026.836182,560.479431 987.917480,619.097839 942.270752,673.264038 
	C906.040955,716.255554 865.913391,754.912415 820.119873,787.778320 
	C777.356689,818.469238 740.898438,855.959412 707.434509,896.421570 
	C672.480835,938.684875 641.164612,983.546326 612.170471,1030.060669 
	C611.661987,1030.876465 611.136475,1031.681641 609.716492,1032.387329 
	C609.931091,1029.909424 610.120728,1027.428955 610.367371,1024.954224 
	C610.615112,1022.469238 610.906494,1019.988403 611.201355,1017.508484 
	C617.872742,961.407288 619.085815,905.175842 614.776428,848.856873 
	C612.093994,813.800293 606.978333,779.081360 598.783447,744.854797 
	C597.580383,739.830017 594.662354,737.386414 590.565125,737.923950 
	C586.425659,738.467102 584.754089,741.239380 584.952576,746.836975 
	C585.943726,774.791504 588.114014,802.768555 587.630249,830.698914 
	C586.166260,915.224548 571.442749,997.779358 548.578491,1079.027466 
	C530.647522,1142.745117 508.372620,1204.953003 482.598724,1265.836548 
	C445.836853,1352.676147 401.844910,1435.917969 354.359985,1517.335327 
	C297.428864,1614.948853 235.754318,1709.486450 170.064041,1801.416992 
	C159.740646,1815.864136 149.309570,1830.234375 138.178314,1845.680908 
	C138.178314,1247.823242 138.178314,651.297729 138.178314,54.125706 
	C139.605011,54.125706 141.205338,54.125702 142.805679,54.125702 
	C394.304199,54.125702 645.802734,54.104866 897.301270,54.161053 
	C920.031616,54.166130 942.791565,54.023808 965.486206,55.068329 
	C1017.996704,57.485115 1069.080933,67.488876 1118.572021,85.458908 
	C1225.740967,124.371490 1311.936157,190.671600 1377.399414,283.870544 
	C1421.121460,346.116852 1449.606445,414.916840 1463.806030,489.588745 
	C1472.375488,534.653687 1475.119629,580.181702 1471.670532,625.906860 
	C1462.613159,745.979065 1418.565430,851.563049 1339.196777,942.232666 
	C1302.715088,983.908813 1260.470581,1018.748230 1213.078491,1047.375854 
	C1211.942627,1048.061890 1210.823975,1048.776367 1209.087524,1049.857056 
	C1211.158203,1051.151123 1212.917358,1052.261597 1214.687012,1053.354736 
	C1327.560913,1123.079956 1405.398560,1220.689697 1447.110229,1346.678589 
	C1468.659424,1411.767212 1476.480591,1478.832520 1471.725464,1547.164673 
	C1464.450806,1651.702637 1429.393677,1746.158325 1367.026611,1830.426147 
	C1366.730957,1830.825684 1366.403564,1831.201782 1365.894287,1831.885742 
z"/>
</svg>